<?xml version="1.0" encoding="UTF-8"?>
<svg width="700pt" height="700pt" version="1.1" viewBox="0 0 700 700" xmlns="http://www.w3.org/2000/svg">
 <path d="m583 69.664c0-12.887-10.445-23.332-23.332-23.332h-164.99c-12.887 0-23.332 10.445-23.332 23.332 0 12.887 10.445 23.332 23.332 23.332h108.66l-158.16 158.16c-9.1133 9.1133-9.1133 23.887 0 32.996 9.1133 9.1133 23.883 9.1133 32.996 0l158.16-158.16v108.66c0 12.883 10.449 23.332 23.332 23.332 12.887 0 23.332-10.449 23.332-23.332zm-331.96 443.67h197.93c18.781 0 34.285 0 46.91-1.0312 13.117-1.0703 25.172-3.3711 36.496-9.1406 17.562-8.9453 31.84-23.227 40.785-40.785 5.7695-11.324 8.0703-23.383 9.1406-36.496 1.0312-12.625 1.0312-28.129 1.0312-46.91v-17.297c0-12.887-10.445-23.332-23.332-23.332s-23.332 10.445-23.332 23.332v16.332c0 19.988-0.019531 33.574-0.875 44.078-0.83594 10.23-2.3516 15.461-4.2109 19.109-4.4727 8.7812-11.613 15.922-20.395 20.395-3.6484 1.8594-8.8789 3.375-19.109 4.2109-10.504 0.85547-24.09 0.875-44.078 0.875h-196c-19.988 0-33.574-0.019531-44.074-0.875-10.23-0.83594-15.461-2.3516-19.109-4.2109-8.7812-4.4727-15.922-11.613-20.395-20.395-1.8594-3.6484-3.375-8.8789-4.2109-19.109-0.85938-10.504-0.875-24.09-0.875-44.078v-196c0-19.988 0.019531-33.574 0.875-44.074 0.83594-10.23 2.3516-15.461 4.2109-19.109 4.4727-8.7812 11.613-15.922 20.395-20.395 3.6484-1.8594 8.8789-3.375 19.109-4.2109 10.504-0.85938 24.09-0.875 44.074-0.875h16.332c12.887 0 23.332-10.445 23.332-23.332 0-12.887-10.445-23.332-23.332-23.332h-17.297c-18.781 0-34.285 0-46.91 1.0312-13.117 1.0703-25.172 3.3711-36.496 9.1406-17.562 8.9492-31.84 23.227-40.789 40.789-5.7695 11.324-8.0703 23.383-9.1406 36.496-1.0312 12.629-1.0312 28.129-1.0312 46.91v197.93c0 18.785 0 34.285 1.0312 46.91 1.0703 13.117 3.3711 25.172 9.1406 36.496 8.9492 17.562 23.227 31.84 40.789 40.785 11.324 5.7695 23.383 8.0703 36.496 9.1406 12.629 1.0312 28.129 1.0312 46.914 1.0312z" fill-rule="evenodd"/>
</svg>
